<?xml version="1.0" encoding="UTF-8" standalone="no"?>
<!-- Created with Inkscape (http://www.inkscape.org/) -->

<svg
   xmlns:dc="http://purl.org/dc/elements/1.1/"
   xmlns:cc="http://creativecommons.org/ns#"
   xmlns:rdf="http://www.w3.org/1999/02/22-rdf-syntax-ns#"
   xmlns:svg="http://www.w3.org/2000/svg"
   xmlns="http://www.w3.org/2000/svg"
   xmlns:sodipodi="http://sodipodi.sourceforge.net/DTD/sodipodi-0.dtd"
   xmlns:inkscape="http://www.inkscape.org/namespaces/inkscape"
   width="300mm"
   height="300mm"
   viewBox="0 0 300 300"
   version="1.1"
   id="svg8"
   sodipodi:docname="Logo.svg"
   inkscape:export-filename="D:\Downloads\Lifeband\Mockups\Logo.png"
   inkscape:export-xdpi="169.33333"
   inkscape:export-ydpi="169.33333"
   inkscape:version="0.92.1 r15371">
  <defs
     id="defs2" />
  <sodipodi:namedview
     id="base"
     pagecolor="#ffffff"
     bordercolor="#666666"
     borderopacity="1.0"
     inkscape:pageopacity="0.0"
     inkscape:pageshadow="2"
     inkscape:zoom="0.49497475"
     inkscape:cx="308.5118"
     inkscape:cy="372.89866"
     inkscape:document-units="mm"
     inkscape:current-layer="layer1"
     showgrid="false"
     inkscape:measure-start="44.4467,1147.53"
     inkscape:measure-end="230.315,913.178"
     inkscape:window-width="1920"
     inkscape:window-height="1017"
     inkscape:window-x="-8"
     inkscape:window-y="-8"
     inkscape:window-maximized="1" />
  <metadata
     id="metadata5">
    <rdf:RDF>
      <cc:Work
         rdf:about="">
        <dc:format>image/svg+xml</dc:format>
        <dc:type
           rdf:resource="http://purl.org/dc/dcmitype/StillImage" />
        <dc:title></dc:title>
      </cc:Work>
    </rdf:RDF>
  </metadata>
  <g
     inkscape:label="Layer 1"
     inkscape:groupmode="layer"
     id="layer1"
     transform="translate(0,3)">
    <path
       style="fill:#4c92ce;fill-opacity:1;stroke-width:1.09360588"
       d="M -0.58085962,146.90166 V -3.5710829 H 149.68808 299.95701 V 146.90166 297.3744 H 149.68808 -0.58085962 Z"
       id="path4513"
       inkscape:connector-curvature="0" />
    <path
       style="fill:#ffffff;stroke-width:0.59731126"
       d="m 54.184608,188.46183 c 0.23728,-61.09312 0.02709,-57.94655 4.830636,-72.30184 9.409598,-28.120179 32.384062,-51.1442 60.324356,-60.454495 11.62597,-3.874014 17.1664,-4.725253 30.8477,-4.739425 10.59478,-0.01016 13.12622,0.175192 18.78503,1.381589 19.48819,4.154657 35.00848,12.575955 49.05296,26.616125 13.96114,13.956849 21.76538,27.970686 26.31449,47.252146 1.58864,6.73344 1.68521,7.9162 1.68068,20.58346 -0.004,11.63881 -0.18202,14.25162 -1.32757,19.50086 -6.40896,29.36809 -24.93347,53.42889 -51.20051,66.50241 -12.2748,6.10937 -23.86559,9.29267 -36.28667,9.96582 l -7.01841,0.38038 v -19.46721 -19.4672 l 2.83724,-0.3327 c 15.50716,-1.81834 24.93076,-5.64183 34.69255,-14.07598 18.16677,-15.69605 24.39174,-41.86855 15.31314,-64.38309 -3.68955,-9.14993 -11.5756,-19.14861 -19.69215,-24.9676 -4.43435,-3.1791 -11.53098,-6.603172 -17.45234,-8.420616 -4.79106,-1.470515 -6.12518,-1.61308 -15.39978,-1.645503 -8.87234,-0.03099 -10.74964,0.136977 -14.87008,1.330388 -19.82774,5.74293 -34.49049,20.285821 -40.478183,40.147241 -1.321584,4.38379 -1.354821,5.20017 -1.550517,38.07859 l -0.199962,33.59875 h 22.128272 22.12828 v 19.71128 19.71128 H 95.808342 53.972928 Z"
       id="path4549"
       inkscape:connector-curvature="0"
       inkscape:export-filename="D:\Downloads\Lifeband\Mockups\Logo.png"
       inkscape:export-xdpi="96"
       inkscape:export-ydpi="96" />
  </g>
</svg>
